HIERARCHY
ROOT hip
{
  OFFSET 0 0 0
  CHANNELS 6 Xposition Yposition Zposition Zrotation Yrotation Xrotation
  JOINT abdomen
  {
    OFFSET 0 20.6881 -0.73152
    CHANNELS 3 Zrotation Xrotation Yrotation
    JOINT chest
    {
      OFFSET 0 11.7043 -0.48768
      CHANNELS 3 Zrotation Xrotation Yrotation
      JOINT neck
      {
        OFFSET 0 22.1894 -2.19456
        CHANNELS 3 Zrotation Xrotation Yrotation
        JOINT head
        {
          OFFSET -0.24384 7.07133 1.2192
          CHANNELS 3 Zrotation Xrotation Yrotation
          JOINT leftEye
          {
            OFFSET 4.14528 8.04674 8.04672
            CHANNELS 3 Zrotation Xrotation Yrotation
            End Site
            {
              OFFSET 1 0 0
            }
          }
          JOINT rightEye
          {
            OFFSET -3.6576 8.04674 8.04672
            CHANNELS 3 Zrotation Xrotation Yrotation
            End Site
            {
              OFFSET 1 0 0
            }
          }
        }
      }
      JOINT rCollar
      {
        OFFSET -2.68224 19.2634 -4.8768
        CHANNELS 3 Zrotation Xrotation Yrotation
        JOINT rShldr
        {
          OFFSET -8.77824 -1.95073 1.46304
          CHANNELS 3 Zrotation Xrotation Yrotation
          JOINT rForeArm
          {
            OFFSET -28.1742 -1.7115 0.48768
            CHANNELS 3 Zrotation Xrotation Yrotation
            JOINT rHand
            {
              OFFSET -22.5879 0.773209 7.07136
              CHANNELS 3 Zrotation Xrotation Yrotation
              JOINT rThumb1
              {
                OFFSET -1.2192 -0.487915 3.41376
                CHANNELS 3 Zrotation Xrotation Yrotation
                JOINT rThumb2
                {
                  OFFSET -3.37035 -0.52449 3.41376
                  CHANNELS 3 Zrotation Xrotation Yrotation
                  End Site
                  {
                    OFFSET -1.78271 -1.18214 1.43049
                  }
                }
              }
              JOINT rIndex1
              {
                OFFSET -7.75947 0.938293 5.60832
                CHANNELS 3 Zrotation Xrotation Yrotation
                JOINT rIndex2
                {
                  OFFSET -2.54057 -0.884171 1.56538
                  CHANNELS 3 Zrotation Xrotation Yrotation
                  End Site
                  {
                    OFFSET -1.62519 -0.234802 1.16502
                  }
                }
              }
              JOINT rMid1
              {
                OFFSET -8.24714 1.18213 3.41376
                CHANNELS 3 Zrotation Xrotation Yrotation
                JOINT rMid2
                {
                  OFFSET -3.10165 -0.590103 1.0647
                  CHANNELS 3 Zrotation Xrotation Yrotation
                  End Site
                  {
                    OFFSET -2.48547 -0.328903 0.83742
                  }
                }
              }
              JOINT rRing1
              {
                OFFSET -8.82822 0.546677 1.51678
                CHANNELS 3 Zrotation Xrotation Yrotation
                JOINT rRing2
                {
                  OFFSET -2.60934 -0.819778 -0.0198488
                  CHANNELS 3 Zrotation Xrotation Yrotation
                  End Site
                  {
                    OFFSET -2.33842 -0.294052 0.168128
                  }
                }
              }
              JOINT rPinky1
              {
                OFFSET -8.27202 -0.0477905 -0.4584
                CHANNELS 3 Zrotation Xrotation Yrotation
                JOINT rPinky2
                {
                  OFFSET -1.82734 -0.647385 -0.700984
                  CHANNELS 3 Zrotation Xrotation Yrotation
                  End Site
                  {
                    OFFSET -1.69225 -0.51767 -0.607171
                  }
                }
              }
            }
          }
        }
      }
      JOINT lCollar
      {
        OFFSET 2.68224 19.2634 -4.8768
        CHANNELS 3 Zrotation Xrotation Yrotation
        JOINT lShldr
        {
          OFFSET 8.77824 -1.95073 1.46304
          CHANNELS 3 Zrotation Xrotation Yrotation
          JOINT lForeArm
          {
            OFFSET 28.1742 -1.7115 0.48768
            CHANNELS 3 Zrotation Xrotation Yrotation
            JOINT lHand
            {
              OFFSET 22.5879 0.773209 7.07136
              CHANNELS 3 Zrotation Xrotation Yrotation
              JOINT lThumb1
              {
                OFFSET 1.2192 -0.487915 3.41376
                CHANNELS 3 Zrotation Xrotation Yrotation
                JOINT lThumb2
                {
                  OFFSET 3.37035 -0.52449 3.41376
                  CHANNELS 3 Zrotation Xrotation Yrotation
                  End Site
                  {
                    OFFSET 1.78271 -1.18214 1.43049
                  }
                }
              }
              JOINT lIndex1
              {
                OFFSET 7.75947 0.938293 5.60832
                CHANNELS 3 Zrotation Xrotation Yrotation
                JOINT lIndex2
                {
                  OFFSET 2.54057 -0.884171 1.56538
                  CHANNELS 3 Zrotation Xrotation Yrotation
                  End Site
                  {
                    OFFSET 1.62519 -0.234802 1.16502
                  }
                }
              }
              JOINT lMid1
              {
                OFFSET 8.24714 1.18213 3.41376
                CHANNELS 3 Zrotation Xrotation Yrotation
                JOINT lMid2
                {
                  OFFSET 3.10165 -0.590103 1.0647
                  CHANNELS 3 Zrotation Xrotation Yrotation
                  End Site
                  {
                    OFFSET 2.48547 -0.328903 0.83742
                  }
                }
              }
              JOINT lRing1
              {
                OFFSET 8.82822 0.546677 1.51678
                CHANNELS 3 Zrotation Xrotation Yrotation
                JOINT lRing2
                {
                  OFFSET 2.60934 -0.819778 -0.0198488
                  CHANNELS 3 Zrotation Xrotation Yrotation
                  End Site
                  {
                    OFFSET 2.33842 -0.294052 0.168128
                  }
                }
              }
              JOINT lPinky1
              {
                OFFSET 8.27202 -0.0477905 -0.4584
                CHANNELS 3 Zrotation Xrotation Yrotation
                JOINT lPinky2
                {
                  OFFSET 1.82734 -0.647385 -0.700984
                  CHANNELS 3 Zrotation Xrotation Yrotation
                  End Site
                  {
                    OFFSET 1.69225 -0.51767 -0.607171
                  }
                }
              }
            }
          }
        }
      }
    }
  }
  JOINT rButtock
  {
    OFFSET -8.77824 4.35084 1.2192
    CHANNELS 3 Zrotation Xrotation Yrotation
    JOINT rThigh
    {
      OFFSET 0 -1.70687 -2.19456
      CHANNELS 3 Zrotation Xrotation Yrotation
      JOINT rShin
      {
        OFFSET 0 -36.8199 0.73152
        CHANNELS 3 Zrotation Xrotation Yrotation
        JOINT rFoot
        {
          OFFSET 0.73152 -45.1104 -5.12064
          CHANNELS 3 Zrotation Xrotation Yrotation
          End Site
          {
            OFFSET -1.1221 -3.69964 12.103
          }
        }
      }
    }
  }
  JOINT lButtock
  {
    OFFSET 8.77824 4.35084 1.2192
    CHANNELS 3 Zrotation Xrotation Yrotation
    JOINT lThigh
    {
      OFFSET 0 -1.70687 -2.19456
      CHANNELS 3 Zrotation Xrotation Yrotation
      JOINT lShin
      {
        OFFSET 0 -36.8199 0.73152
        CHANNELS 3 Zrotation Xrotation Yrotation
        JOINT lFoot
        {
          OFFSET -0.73152 -45.1104 -5.12064
          CHANNELS 3 Zrotation Xrotation Yrotation
          End Site
          {
            OFFSET 1.1221 -3.69964 12.103
          }
        }
      }
    }
  }
}
MOTION
Frames:	4
Frame Time:	0.03333
-3.735700006288711 62.43589984467795 -21.595300067978094 -167.5339813232422 75.4657211303711 -154.1269989013672 4.868499755859375 20.142101287841797 8.96541976928711 -3.5254201889038086 -13.973102569580078 2.336989641189575 0.3748369812965393 13.430500030517578 12.108099937438965 -1.3934398889541626 -29.817401885986328 23.886098861694336 -0.0 0.0 -0.0 -0.0 0.0 -0.0 -1.772250017096147e-13 -3.8147298362690985e-13 5.184800071916795e-13 39.744300842285156 57.95859146118164 7.487402439117432 -27.872800827026367 -41.0382080078125 85.80290222167969 -0.17683398723602295 11.897998809814453 1.696869969367981 1.4804899528542137e-09 -5.429940053147675e-09 -5.640839462195402e-10 2.5424899963155667e-09 -9.356550201289338e-09 -9.886169660688893e-10 1.4804800718692945e-09 -5.429889871066962e-09 -5.641099809494676e-10 7.730909824371338 5.474879741668701 0.4173140823841095 1.4804800718692945e-09 -5.429929839095848e-09 -5.640869993328579e-10 2.9055399894714355 0.9651829600334167 0.10290199518203735 1.4804899528542137e-09 -5.429929839095848e-09 -5.640859446209845e-10 10.27859878540039 0.73180091381073 0.025912316516041756 1.4804800718692945e-09 -5.429929839095848e-09 -5.640839462195402e-10 2.221669912338257 -0.733487069606781 -0.208919957280159 -1.7741900613585382e-13 -3.814639576438239e-13 5.18380965323223e-13 -56.27969741821289 13.629598617553711 -35.09160232543945 27.85940170288086 -41.0984992980957 -85.9136962890625 2.312429666519165 -38.973697662353516 6.5286993980407715 -2.027829903994416e-09 5.434610053645095e-11 -7.934209955706706e-10 -3.4740998966498182e-09 2.1802700270190378e-11 -1.431620044733961e-09 -2.027829903994416e-09 5.43381971362944e-11 -7.934119472530199e-10 -7.730909824371338 5.474879741668701 -0.4173140823841095 -2.027829903994416e-09 5.434899752465583e-11 -7.934150003663376e-10 -2.9055399894714355 0.9651829600334167 -0.10290199518203735 -2.0278398960016375e-09 5.4347394640164026e-11 -7.934169987677819e-10 -10.27859878540039 0.73180091381073 -0.025912316516041756 -2.0278199119871942e-09 5.4344195810074325e-11 -7.934279344645745e-10 -2.221669912338257 -0.733487069606781 0.208919957280159 -2.0321699480147914e-16 0.0 -3.8825099822884138e-19 -39.5989990234375 -52.858402252197266 -28.52220344543457 -5.967988967895508 81.85393524169922 7.041689395904541 -2.3528499603271484 -4.640600204467773 -12.405800819396973 2.0321699480147914e-16 0.0 3.8825099822884138e-19 27.687599182128906 -64.89671325683594 23.970003128051758 3.935739755630493 78.43592071533203 -4.935070037841797 2.510430097579956 -22.01430320739746 6.281350135803223
-3.7099000055680924 63.32329851221352 -23.88030015433131 -176.14999389648438 77.09342193603516 -162.40499877929688 2.99003005027771 19.603500366210938 8.523150444030762 -3.6525495052337646 -13.695202827453613 2.1370999813079834 0.3133399784564972 13.391900062561035 12.213897705078125 -1.6304999589920044 -29.306396484375 24.014299392700195 -0.0 0.0 -0.0 -0.0 0.0 -0.0 -2.060689807811475e-13 -6.475269539313322e-13 2.883060001672433e-13 40.07119369506836 57.7765007019043 6.188509941101074 -27.868900299072266 -41.055198669433594 85.83480072021484 -0.14384399354457855 10.782600402832031 1.5335499048233032 1.2720099279439623e-11 -1.1113399089879294e-09 1.2885099653914267e-09 2.0755799856608803e-11 -1.923520009938784e-09 2.2283299649927812e-09 1.2734598965613575e-11 -1.1113300280030103e-09 1.2884799893697618e-09 7.730909824371338 5.474879741668701 0.4173140823841095 1.2718799104194378e-11 -1.1113300280030103e-09 1.2884998623619026e-09 2.9055399894714355 0.9651829600334167 0.10290199518203735 1.2744599646452581e-11 -1.111349900995151e-09 1.2884998623619026e-09 10.27859878540039 0.73180091381073 0.025912316516041756 1.2716498860865233e-11 -1.1113399089879294e-09 1.2885099653914267e-09 2.221669912338257 -0.733487069606781 -0.208919957280159 -2.0618699618762254e-13 -6.475309654793704e-13 2.881789858827366e-13 -55.60580062866211 13.008600234985352 -33.644203186035156 27.681499481201172 -41.85490417480469 -87.30289459228516 2.5417098999023438 -40.48689651489258 6.889349460601807 -1.7566700316606898e-09 2.671760035433124e-10 -4.935409858575213e-10 -3.0206301904200927e-09 4.068999859274669e-10 -9.003879863911379e-10 -1.7566700316606898e-09 2.6716401313464644e-10 -4.935349906531883e-10 -7.730909824371338 5.474879741668701 -0.4173140823841095 -1.7566599286311657e-09 2.671809995469232e-10 -4.935430397701168e-10 -2.9055399894714355 0.9651829600334167 -0.10290199518203735 -1.7566700316606898e-09 2.6718000034620104e-10 -4.935449826604099e-10 -10.27859878540039 0.73180091381073 -0.025912316516041756 -1.7566599286311657e-09 2.671790011454789e-10 -4.935549746676315e-10 -2.221669912338257 -0.733487069606781 0.208919957280159 -2.0321699480147914e-16 0.0 -3.8825099822884138e-19 -42.10940170288086 -56.69399642944336 -34.184600830078125 -19.871999740600586 87.17742156982422 20.83359718322754 -3.048909902572632 -8.043890953063965 -11.407600402832031 2.0321699480147914e-16 0.0 3.8825099822884138e-19 20.016399383544922 -63.4281005859375 20.460399627685547 3.1880595684051514 76.31700134277344 -4.143499851226807 3.1488003730773926 -21.40610122680664 7.425260066986084
-3.4850000188895556 64.26180065511912 -26.288300208248817 172.3319854736328 78.50521087646484 -173.79299926757812 1.2405200004577637 19.027400970458984 8.181891441345215 -4.033679962158203 -13.21679973602295 1.9538098573684692 0.2710530161857605 13.386900901794434 12.315601348876953 -1.9651998281478882 -28.738801956176758 24.106098175048828 -0.0 0.0 -0.0 -0.0 0.0 -0.0 -1.5623999761061463e-13 -7.34600965127119e-13 -4.124780080211679e-14 40.43840026855469 57.47520065307617 5.021817684173584 -27.876399993896484 -41.02190399169922 85.7730941772461 -0.11812601238489151 9.753890991210938 1.3843499422073364 -1.2242800107031826e-09 3.0651599036701782e-09 2.3957402728314037e-09 -2.103509810780224e-09 5.267899894079164e-09 4.154910193676642e-09 -1.2242499236592153e-09 3.06513969761113e-09 2.3957198447277506e-09 7.730909824371338 5.474879741668701 0.4173140823841095 -1.2242800107031826e-09 3.0651798876846215e-09 2.3957402728314037e-09 2.9055399894714355 0.9651829600334167 0.10290199518203735 -1.2242499236592153e-09 3.06513969761113e-09 2.395730058779577e-09 10.27859878540039 0.73180091381073 0.025912316516041756 -1.2242900027104042e-09 3.0651599036701782e-09 2.3957402728314037e-09 2.221669912338257 -0.733487069606781 -0.208919957280159 -1.56260001140697e-13 -7.346170113192718e-13 -4.1446596046705586e-14 -55.09819793701172 12.456297874450684 -31.62720489501953 27.43869972229004 -42.71310043334961 -88.93759155273438 2.7188398838043213 -41.55809783935547 7.157319068908691 -9.635299225152494e-10 4.015930088474562e-10 -4.402520015212019e-11 -1.6686700909929186e-09 6.727949863893912e-10 -9.83921000230481e-11 -9.635299225152494e-10 4.0157996372691684e-10 -4.40221019359921e-11 -7.730909824371338 5.474879741668701 -0.4173140823841095 -9.635259257123607e-10 4.01598004851067e-10 -4.403480011183625e-11 -2.9055399894714355 0.9651829600334167 -0.10290199518203735 -9.63527924113805e-10 4.0159897629621355e-10 -4.403719749968005e-11 -10.27859878540039 0.73180091381073 -0.025912316516041756 -9.635230391324967e-10 4.016010024532335e-10 -4.4047494818233446e-11 -2.221669912338257 -0.733487069606781 0.208919957280159 -2.0321699480147914e-16 0.0 -3.8825099822884138e-19 -44.806495666503906 -59.49560546875 -40.512699127197266 -152.6529998779297 87.69182586669922 153.4810028076172 -3.3278696537017822 -10.816900253295898 -9.970709800720215 2.0321699480147914e-16 0.0 3.8825099822884138e-19 13.285900115966797 -61.70750045776367 18.087202072143555 2.751089572906494 74.55570220947266 -3.612659454345703 3.0811898708343506 -20.58690071105957 6.979739665985107
-3.1240000286229046 65.29009929504288 -28.817300264964274 161.2679901123047 79.45381164550781 174.86500549316406 0.630403995513916 18.653499603271484 7.993680000305176 -4.958509922027588 -12.478901863098145 1.8299002647399902 0.2481120526790619 13.507000923156738 12.447600364685059 -2.3139901161193848 -28.352903366088867 24.262102127075195 -0.0 0.0 -0.0 -0.0 0.0 -0.0 -7.683689974427935e-14 -3.980140056512177e-13 1.4308499318108764e-13 41.02259826660156 56.826900482177734 3.7541322708129883 -27.89889907836914 -40.917396545410156 85.58159637451172 -0.10701199620962143 9.274120330810547 1.3150800466537476 6.376619787751281e-10 -1.866199861311202e-09 -1.1310098690930914e-10 1.0979399611699137e-09 -3.2269100724846567e-09 -1.9857299138337225e-10 6.376760230963896e-10 -1.8662098533184235e-09 -1.1312700082255489e-10 7.730909824371338 5.474879741668701 0.4173140823841095 6.376629779758503e-10 -1.866190091348585e-09 -1.1310800213104599e-10 2.9055399894714355 0.9651829600334167 0.10290199518203735 6.376860151036112e-10 -1.8662098533184235e-09 -1.1310800213104599e-10 10.27859878540039 0.73180091381073 0.025912316516041756 6.376589811729616e-10 -1.866199861311202e-09 -1.1309800318493046e-10 2.221669912338257 -0.733487069606781 -0.208919957280159 -7.678509520922527e-14 -3.980180171992559e-13 1.427679995709072e-13 -55.18949508666992 12.200299263000488 -29.0752010345459 27.135501861572266 -43.66849899291992 -90.75740814208984 2.606289863586426 -40.874794006347656 6.9863600730896 -1.469279919952271e-09 1.6686199644233568e-10 -5.639099742715814e-10 -2.5197797182130444e-09 2.4298299483582753e-10 -1.0183099918847915e-09 -1.469279919952271e-09 1.668559873602149e-10 -5.639049782679706e-10 -7.730909824371338 5.474879741668701 -0.4173140823841095 -1.469279919952271e-09 1.6686500792228998e-10 -5.639169686766365e-10 -2.9055399894714355 0.9651829600334167 -0.10290199518203735 -1.469279919952271e-09 1.6686599324522433e-10 -5.639209654795252e-10 -10.27859878540039 0.73180091381073 -0.025912316516041756 -1.4692699279450494e-09 1.6686799164666866e-10 -5.639309574867468e-10 -2.221669912338257 -0.733487069606781 0.208919957280159 -2.0321699480147914e-16 0.0 -3.8825099822884138e-19 -44.93769454956055 -60.721900939941406 -45.28669738769531 -167.0179901123047 84.91423034667969 167.64401245117188 -2.602180242538452 -12.668399810791016 -6.673969268798828 2.0321699480147914e-16 0.0 3.8825099822884138e-19 8.476518630981445 -59.579307556152344 17.192102432250977 2.5760998725891113 73.45751190185547 -3.231639862060547 1.538210153579712 -20.018098831176758 2.8493099212646484
